<?xml version="1.0" encoding="UTF-8" standalone="no" ?>
<!DOCTYPE svg PUBLIC "-//W3C//DTD SVG 1.1//EN" "http://www.w3.org/Graphics/SVG/1.1/DTD/svg11.dtd">
<svg xmlns="http://www.w3.org/2000/svg" xmlns:xlink="http://www.w3.org/1999/xlink" version="1.1" width="150" height="150" viewBox="0 0 150 150" xml:space="preserve">
<desc>Created with Fabric.js 5.2.4</desc>
<defs>
</defs>
<g transform="matrix(1 0 0 1 75 75)" id="c04cee04-da91-4c54-87a4-60eac26a3cca"  >
<rect style="stroke: none; stroke-width: 1; stroke-dasharray: none; stroke-linecap: butt; stroke-dashoffset: 0; stroke-linejoin: miter; stroke-miterlimit: 4; fill: rgb(255,255,255); fill-rule: nonzero; opacity: 1; visibility: hidden;" vector-effect="non-scaling-stroke"  x="-75" y="-75" rx="0" ry="0" width="150" height="150" />
</g>
<g transform="matrix(0 0 0 0 0 0)" id="20e4938e-0154-4877-b7ae-a4965fccf883"  >
</g>
<g transform="matrix(0 0 0 0 25.64 0)"  >
<g style=""   >
</g>
</g>
<g transform="matrix(0.36 0 0 0.36 74.95 74.95)"  >
<g style="" vector-effect="non-scaling-stroke"   >
		<g transform="matrix(1 0 0 1 137.14 -7.88)"  >
<path style="stroke: none; stroke-width: 1; stroke-dasharray: none; stroke-linecap: butt; stroke-dashoffset: 0; stroke-linejoin: miter; stroke-miterlimit: 4; fill: rgb(35,24,21); fill-rule: nonzero; opacity: 1;" vector-effect="non-scaling-stroke"  transform=" translate(-387.25, -242.25)" d="M 404.07 234.75 C 413.74 234.75 413.71999999999997 249.75 404.07 249.75 L 370.42 249.75 C 360.75 249.75 360.77000000000004 234.75 370.42 234.75 Z" stroke-linecap="round" />
</g>
		<g transform="matrix(1 0 0 1 127.12 66.94)"  >
<path style="stroke: none; stroke-width: 1; stroke-dasharray: none; stroke-linecap: butt; stroke-dashoffset: 0; stroke-linejoin: miter; stroke-miterlimit: 4; fill: rgb(35,24,21); fill-rule: nonzero; opacity: 1;" vector-effect="non-scaling-stroke"  transform=" translate(-377.23, -317.07)" d="M 341.39 254.91 Q 342 250.56 342.21 246.13 C 356.1865756541164 255.52622786909723 366.5317195383413 269.4173709360117 371.53 285.5 C 397.62434241190294 290.758108728648 415.47599693181735 314.95079137893185 412.8043004175745 341.4352104030997 C 410.13260390333164 367.9196294272676 387.8087692163775 388.059487117561 361.19 388 L 354 388 C 354 384.28 356.46 380.56 361.24 380.5 C 383.24 380.2 402.45 363.89 405.24 341.79 C 408.13 318.51 392.16 297.65000000000003 369.63 292.79 C 367.0877488128 292.08497867473017 365.0998762927882 290.10089980456576 364.39 287.56 C 360.22878647417747 274.58758347720584 352.20402117206083 263.1959057765925 341.38999999999993 254.90999999999997 Z" stroke-linecap="round" />
</g>
		<g transform="matrix(1 0 0 1 118.15 -78.71)"  >
<path style="stroke: none; stroke-width: 1; stroke-dasharray: none; stroke-linecap: butt; stroke-dashoffset: 0; stroke-linejoin: miter; stroke-miterlimit: 4; fill: rgb(35,24,21); fill-rule: nonzero; opacity: 1;" vector-effect="non-scaling-stroke"  transform=" translate(-368.26, -171.42)" d="M 379.05 156.51 C 387.43 151.67 394.98 164.64 386.62 169.51 L 357.48 186.32999999999998 C 349.09000000000003 191.17 341.55 178.20999999999998 349.91 173.38 Z" stroke-linecap="round" />
</g>
		<g transform="matrix(1 0 0 1 131.17 66.27)"  >
<path style="stroke: none; stroke-width: 1; stroke-dasharray: none; stroke-linecap: butt; stroke-dashoffset: 0; stroke-linejoin: miter; stroke-miterlimit: 4; fill: rgb(35,24,21); fill-rule: nonzero; opacity: 1;" vector-effect="non-scaling-stroke"  transform=" translate(-381.28, -316.4)" d="M 412.94 336.22 C 412.9386656080313 311.6226685809972 395.62978236198296 290.42231701761705 371.53 285.5 C 366.5317195383413 269.4173709360117 356.1865756541164 255.5262278690972 342.21 246.12999999999997 C 342.27 245.03 342.31 243.93 342.32 242.82 L 342.32 242.73999999999998 C 342.32 242.6 342.32 242.45999999999998 342.32 242.32 L 342.32 242.25 C 342.32 242.08 342.32 241.91 342.32 241.74 C 342.32 240.24 342.23 238.74 342.15 237.27 C 358.2284339273208 246.93822786018671 370.5903970754506 261.73032051606845 377.25 279.26999999999987 C 376.02 278.91999999999996 374.79 278.59 373.52 278.32 L 378.76 283.56 C 378.3 282.11 377.76 280.69 377.25 279.27 C 404.68 287.15999999999997 423.52 314.41999999999996 419.98 343.17999999999995 C 416.20545566980655 372.8609017837293 391.1082826814719 395.20460027342887 361.19 395.52 C 356.31 395.58 353.9 391.79999999999995 353.95 388.02 L 361.19 388.02 C 374.92362079503886 388.02000641024244 388.09401878890355 382.56092689566265 397.80046494681017 372.84510252890783 C 407.5069111047167 363.12927816215307 412.9532691988373 349.9536143847979 412.94 336.22 Z" stroke-linecap="round" />
</g>
		<g transform="matrix(1 0 0 1 126.03 30.76)"  >
<path style="stroke: none; stroke-width: 1; stroke-dasharray: none; stroke-linecap: butt; stroke-dashoffset: 0; stroke-linejoin: miter; stroke-miterlimit: 4; fill: rgb(35,24,21); fill-rule: nonzero; opacity: 1;" vector-effect="non-scaling-stroke"  transform=" translate(-376.14, -280.89)" d="M 377.25 279.22 C 377.79 280.64000000000004 378.25 282.06 378.76 283.51000000000005 L 373.52 278.27000000000004 C 374.79 278.54 376 278.87 377.25 279.22 Z" stroke-linecap="round" />
</g>
		<g transform="matrix(1 0 0 1 91.83 -5.65)"  >
<path style="stroke: none; stroke-width: 1; stroke-dasharray: none; stroke-linecap: butt; stroke-dashoffset: 0; stroke-linejoin: miter; stroke-miterlimit: 4; fill: rgb(35,24,21); fill-rule: nonzero; opacity: 1;" vector-effect="non-scaling-stroke"  transform=" translate(-341.94, -244.47)" d="M 341.56 245.7 C 342.00911532989005 244.80263908113577 342.2678636180428 243.82211925234648 342.32 242.82 C 342.32 243.93 342.27 245.03 342.21 246.13 Z" stroke-linecap="round" />
</g>
		<g transform="matrix(1 0 0 1 84.34 -6.02)"  >
<path style="stroke: none; stroke-width: 1; stroke-dasharray: none; stroke-linecap: butt; stroke-dashoffset: 0; stroke-linejoin: miter; stroke-miterlimit: 4; fill: rgb(35,24,21); fill-rule: nonzero; opacity: 1;" vector-effect="non-scaling-stroke"  transform=" translate(-334.44, -244.11)" d="M 341.56 245.7 C 339.93 248.94 335.96 250.1 332.63 249.17999999999998 C 331.63 248.67 330.71999999999997 248.17999999999998 329.74 247.7 C 328.16490697617513 246.33305025421103 327.28135255736737 244.33497075939678 327.33 242.25 C 327.31971378108335 241.02902156040668 327.60808509698506 239.82404141896015 328.16999999999996 238.74 C 332.86010488240385 240.59489202847064 337.34703692852133 242.9271584243614 341.56 245.7 Z" stroke-linecap="round" />
</g>
		<g transform="matrix(1 0 0 1 85.15 -9.8)"  >
<path style="stroke: none; stroke-width: 1; stroke-dasharray: none; stroke-linecap: butt; stroke-dashoffset: 0; stroke-linejoin: miter; stroke-miterlimit: 4; fill: rgb(35,24,21); fill-rule: nonzero; opacity: 1;" vector-effect="non-scaling-stroke"  transform=" translate(-335.25, -240.33)" d="M 342.33 242.32 C 342.33 242.45999999999998 342.33 242.6 342.33 242.73999999999998 L 342.33 242.82 C 342.2778636180428 243.82211925234648 342.01911532989004 244.80263908113577 341.57 245.7 C 337.3587326598792 242.91331020240398 332.8717424425247 240.5676095659976 328.17999999999995 238.69999999999996 C 331.28000000000003 232.85999999999999 341.94 233.85999999999999 342.33 241.7 C 342.33 241.86999999999998 342.33 242.04 342.33 242.20999999999998 Z" stroke-linecap="round" />
</g>
		<g transform="matrix(1 0 0 1 87.31 0.17)"  >
<path style="stroke: none; stroke-width: 1; stroke-dasharray: none; stroke-linecap: butt; stroke-dashoffset: 0; stroke-linejoin: miter; stroke-miterlimit: 4; fill: rgb(35,24,21); fill-rule: nonzero; opacity: 1;" vector-effect="non-scaling-stroke"  transform=" translate(-337.42, -250.31)" d="M 342.21 246.13 Q 342 250.54999999999998 341.39 254.91 C 338.6238987924571 252.77447388281342 335.6949623427904 250.85862846539447 332.63 249.17999999999998 C 335.96 250.1 339.93 248.94 341.56 245.70000000000002 Z" stroke-linecap="round" />
</g>
		<g transform="matrix(1 0 0 1 35.58 64.37)"  >
<path style="stroke: none; stroke-width: 1; stroke-dasharray: none; stroke-linecap: butt; stroke-dashoffset: 0; stroke-linejoin: miter; stroke-miterlimit: 4; fill: rgb(216,191,158); fill-rule: nonzero; opacity: 1;" vector-effect="non-scaling-stroke"  transform=" translate(-285.69, -314.49)" d="M 332.63 249.18 C 347.6963242697654 257.436129619774 359.02899824183373 271.14841464060316 364.3 287.5 C 365.00987629278825 290.04089980456575 366.9977488128 292.02497867473016 369.54 292.73 C 392.07000000000005 297.62 408.04 318.48 405.15000000000003 341.73 C 402.40000000000003 363.83000000000004 383.15000000000003 380.14 361.15000000000003 380.44 C 356.37000000000006 380.5 353.95000000000005 384.21999999999997 353.91 387.94 L 227.78 387.94 C 227.78 384.21 225.34 380.49 220.54 380.44 C 196.04 380.16 174.18 363.84 167.7 340.04 C 163.10282985345629 322.50386154352077 167.37960967887386 303.8279671093829 179.14999999999998 290.04 C 183.15558367699794 285.3275587283485 187.94206391495425 281.33938897530925 193.29999999999995 278.25 C 206.88 270.42 222.83999999999997 269.16 237.73 273.76 C 241.07 274.76 244.35999999999999 273.02 246.2 270.31 C 260.84 248.77 287.62 237.17000000000002 313.35 242.21 C 318.09910010603437 243.14216976654714 322.73292972737227 244.58730765858525 327.17 246.52 C 328.04 246.89000000000001 328.90000000000003 247.29000000000002 329.74 247.70000000000002 C 330.58 248.11 331.68 248.67 332.63 249.18 Z" stroke-linecap="round" />
</g>
		<g transform="matrix(1 0 0 1 66.28 -130.58)"  >
<path style="stroke: none; stroke-width: 1; stroke-dasharray: none; stroke-linecap: butt; stroke-dashoffset: 0; stroke-linejoin: miter; stroke-miterlimit: 4; fill: rgb(35,24,21); fill-rule: nonzero; opacity: 1;" vector-effect="non-scaling-stroke"  transform=" translate(-316.39, -119.55)" d="M 318.34 101.19 C 323.16999999999996 92.82 336.13 100.38 331.28999999999996 108.75999999999999 L 314.47 137.9 C 309.64000000000004 146.27 296.68 138.71 301.47 130.33 Z" stroke-linecap="round" />
</g>
		<g transform="matrix(1 0 0 1 84.2 -14.22)"  >
<path style="stroke: none; stroke-width: 1; stroke-dasharray: none; stroke-linecap: butt; stroke-dashoffset: 0; stroke-linejoin: miter; stroke-miterlimit: 4; fill: rgb(35,24,21); fill-rule: nonzero; opacity: 1;" vector-effect="non-scaling-stroke"  transform=" translate(-334.31, -235.91)" d="M 327.2 238.36 C 327.04564361204876 235.58655387358638 326.7485836741871 232.82289512583995 326.31 230.07999999999998 C 331.8420870126103 231.87722779614228 337.15526468502435 234.2889542774969 342.1499999999999 237.26999999999998 C 342.22999999999996 238.75 342.29999999999995 240.27 342.32 241.74 C 341.93 233.9 331.27 232.9 328.17 238.74 Z" stroke-linecap="round" />
</g>
		<g transform="matrix(1 0 0 1 77.59 -9.83)"  >
<path style="stroke: none; stroke-width: 1; stroke-dasharray: none; stroke-linecap: butt; stroke-dashoffset: 0; stroke-linejoin: miter; stroke-miterlimit: 4; fill: rgb(35,24,21); fill-rule: nonzero; opacity: 1;" vector-effect="non-scaling-stroke"  transform=" translate(-327.7, -240.31)" d="M 327.2 238.36 L 328.2 238.74 C 327.6380850969851 239.82404141896012 327.3497137810834 241.02902156040668 327.36 242.25 C 327.32 240.94 327.27 239.65 327.2 238.36 Z" stroke-linecap="round" />
</g>
		<g transform="matrix(1 0 0 1 78.35 -5.16)"  >
<path style="stroke: none; stroke-width: 1; stroke-dasharray: none; stroke-linecap: butt; stroke-dashoffset: 0; stroke-linejoin: miter; stroke-miterlimit: 4; fill: rgb(35,24,21); fill-rule: nonzero; opacity: 1;" vector-effect="non-scaling-stroke"  transform=" translate(-328.46, -244.97)" d="M 327.17 246.52 C 327.26 245.10000000000002 327.32 243.67000000000002 327.33000000000004 242.25 C 327.2813525573674 244.33497075939678 328.1649069761752 246.33305025421103 329.74000000000007 247.7 C 328.9 247.29 328 246.89 327.17 246.52 Z" stroke-linecap="round" />
</g>
		<g transform="matrix(1 0 0 1 0.99 11.67)"  >
<path style="stroke: none; stroke-width: 1; stroke-dasharray: none; stroke-linecap: butt; stroke-dashoffset: 0; stroke-linejoin: miter; stroke-miterlimit: 4; fill: rgb(35,24,21); fill-rule: nonzero; opacity: 1;" vector-effect="non-scaling-stroke"  transform=" translate(-251.1, -261.8)" d="M 301.11 233.6 C 310.02328738747127 233.59223997008021 318.86371878747246 235.20513584834796 327.2 238.35999999999996 C 327.27 239.64999999999998 327.32 240.94 327.33 242.24999999999997 C 327.34 243.55999999999995 327.26 245.09999999999997 327.16999999999996 246.51999999999998 C 322.73292972737227 244.58730765858522 318.0991001060343 243.1421697665471 313.34999999999997 242.21 C 287.61999999999995 237.20999999999998 260.84 248.76999999999998 246.19999999999996 270.31 C 244.35999999999996 273.02 241.06999999999996 274.79 237.72999999999996 273.76 C 222.83999999999997 269.15999999999997 206.87999999999997 270.42 193.29999999999995 278.25 C 187.94520948171623 281.32737981314705 183.15892590857774 285.3018555717603 179.14999999999998 290.00000000000006 C 177.60600943725535 287.89348937518224 176.17402642132808 285.70712836018834 174.86 283.45 C 189.59283011081502 267.5005086659984 211.57739054935303 260.38964049656784 232.86 264.69 C 235.18185367603442 265.15693742678354 237.47550140600745 265.7545545209104 239.72999999999996 266.48 C 253.3873883264169 245.9267121077756 276.4328533790413 233.58173180588093 301.11 233.59999999999997 Z" stroke-linecap="round" />
</g>
		<g transform="matrix(1 0 0 1 29.91 -3.75)"  >
<path style="stroke: none; stroke-width: 1; stroke-dasharray: none; stroke-linecap: butt; stroke-dashoffset: 0; stroke-linejoin: miter; stroke-miterlimit: 4; fill: rgb(35,24,21); fill-rule: nonzero; opacity: 1;" vector-effect="non-scaling-stroke"  transform=" translate(-280.02, -246.37)" d="M 327.2 238.36 C 295.04078814720356 226.21052924419112 258.75276668164724 237.891721339185 239.71999999999997 266.52 C 237.46550140600746 265.7945545209105 235.17185367603437 265.19693742678356 232.85 264.73 L 233.24999999999997 262.73 L 241.71999999999997 259.28000000000003 C 240.06999999999996 258.77000000000004 238.40999999999997 258.34000000000003 236.71999999999997 257.96000000000004 C 255.45275905819028 233.88906462203144 285.96787245912776 222.16106884344208 316 227.49 C 319.5106783726994 228.10517399672096 322.97284896680833 228.9707166452482 326.36 230.08 C 326.78183951283347 232.82376459079035 327.06221022656297 235.58741876898108 327.2 238.36 Z" stroke-linecap="round" />
</g>
		<g transform="matrix(1 0 0 1 -4.99 -31.67)"  >
<path style="stroke: none; stroke-width: 1; stroke-dasharray: none; stroke-linecap: butt; stroke-dashoffset: 0; stroke-linejoin: miter; stroke-miterlimit: 4; fill: rgb(248,182,45); fill-rule: nonzero; opacity: 1;" vector-effect="non-scaling-stroke"  transform=" translate(-245.11, -218.46)" d="M 171.24 276.48 C 160.10557495635098 251.75170394031244 161.74440677868722 223.14494254039772 175.63 199.85000000000002 C 193.17 170.90000000000003 228.10999999999999 155.25000000000003 261.39 161.99 C 295.0967276516451 168.95494489194562 320.95870178851914 196.0797418571297 326.31 230.07999999999998 C 322.9391731284694 228.97301843438896 319.49379175799396 228.10749585926465 316 227.49 C 285.96669966351897 222.17804250045086 255.45976836002242 233.9212480779134 236.74 258 C 213.18472484373797 252.6222983807366 188.51094465041535 259.58369468566184 171.24 276.48 Z" stroke-linecap="round" />
</g>
		<g transform="matrix(1 0 0 1 -4.55 -149.56)"  >
<path style="stroke: none; stroke-width: 1; stroke-dasharray: none; stroke-linecap: butt; stroke-dashoffset: 0; stroke-linejoin: miter; stroke-miterlimit: 4; fill: rgb(35,24,21); fill-rule: nonzero; opacity: 1;" vector-effect="non-scaling-stroke"  transform=" translate(-245.56, -100.56)" d="M 253.06 83.74 L 253.06 117.38999999999999 C 253.06 127.05999999999999 238.06 127.03999999999999 238.06 117.38999999999999 L 238.06 83.74 C 238.06 74.07 253.06 74.08 253.06 83.74 Z" stroke-linecap="round" />
</g>
		<g transform="matrix(1 0 0 1 -12.63 10.22)"  >
<path style="stroke: none; stroke-width: 1; stroke-dasharray: none; stroke-linecap: butt; stroke-dashoffset: 0; stroke-linejoin: miter; stroke-miterlimit: 4; fill: rgb(35,24,21); fill-rule: nonzero; opacity: 1;" vector-effect="non-scaling-stroke"  transform=" translate(-237.49, -260.36)" d="M 241.72 259.29 L 233.25 262.74 C 234.36 261.1 235.53 259.51 236.74 257.97 C 238.41 258.35 240.07 258.78 241.72 259.29 Z" stroke-linecap="round" />
</g>
		<g transform="matrix(1 0 0 1 -46.12 19.75)"  >
<path style="stroke: none; stroke-width: 1; stroke-dasharray: none; stroke-linecap: butt; stroke-dashoffset: 0; stroke-linejoin: miter; stroke-miterlimit: 4; fill: rgb(35,24,21); fill-rule: nonzero; opacity: 1;" vector-effect="non-scaling-stroke"  transform=" translate(-203.99, -269.88)" d="M 236.74 258 C 235.53 259.54 234.36 261.13 233.25 262.77 L 232.85 264.77 C 211.56739054935298 260.4696404965678 189.58283011081502 267.58050866599837 174.85000000000002 283.5299999999999 C 173.51999999999998 281.25 172.32 278.9 171.23 276.53 C 188.4932309401889 259.6123954089871 213.1729866325461 252.63153946364474 236.74 258 Z" stroke-linecap="round" />
</g>
		<g transform="matrix(1 0 0 1 -75.41 -130.58)"  >
<path style="stroke: none; stroke-width: 1; stroke-dasharray: none; stroke-linecap: butt; stroke-dashoffset: 0; stroke-linejoin: miter; stroke-miterlimit: 4; fill: rgb(35,24,21); fill-rule: nonzero; opacity: 1;" vector-effect="non-scaling-stroke"  transform=" translate(-174.69, -119.55)" d="M 189.61 130.33 C 194.45000000000002 138.72000000000003 181.48000000000002 146.26000000000002 176.61 137.9 L 159.78000000000003 108.76 C 154.94000000000003 100.37 167.91000000000003 92.83000000000001 172.73000000000002 101.19 Z" stroke-linecap="round" />
</g>
		<g transform="matrix(1 0 0 1 -60.72 92.32)"  >
<path style="stroke: none; stroke-width: 1; stroke-dasharray: none; stroke-linecap: butt; stroke-dashoffset: 0; stroke-linejoin: miter; stroke-miterlimit: 4; fill: rgb(35,24,21); fill-rule: nonzero; opacity: 1;" vector-effect="non-scaling-stroke"  transform=" translate(-189.38, -342.45)" d="M 158.31 325.73 C 158.30204162157028 342.24053904965376 164.85456515253514 358.0777189395332 176.52552911688406 369.7561847287025 C 188.19649308123294 381.43465051787183 204.02945924510138 387.9973491961632 220.53999999999996 388 L 227.78 388 C 227.78 391.77 225.4 395.55 220.54 395.5 C 202.97308299656586 395.3788920048712 186.07592507067216 388.7440315961799 173.12 376.88 C 149.84 355.46 144.3 319.75 159.46 292.09 C 159.96 291.17999999999995 160.46 290.27 161.03 289.39 Q 161.83 290.83 162.68 292.24 C 163.59 293.75 164.55 295.24 165.54000000000002 296.65000000000003 C 160.78549789392247 305.6052014071212 158.30280287036246 315.5909235765714 158.31 325.73 Z" stroke-linecap="round" />
</g>
		<g transform="matrix(1 0 0 1 -77.77 43.35)"  >
<path style="stroke: none; stroke-width: 1; stroke-dasharray: none; stroke-linecap: butt; stroke-dashoffset: 0; stroke-linejoin: miter; stroke-miterlimit: 4; fill: rgb(35,24,21); fill-rule: nonzero; opacity: 1;" vector-effect="non-scaling-stroke"  transform=" translate(-172.34, -293.48)" d="M 165.54 296.62 C 168.06272864461545 291.8568206828538 171.1958096893754 287.44294148567593 174.85999999999996 283.49 C 176.17402642132802 285.74712836018836 177.60600943725532 287.93348937518226 179.14999999999998 290.04 C 175.69469160498596 294.08177741063867 172.84185207868774 298.60186081594236 170.67999999999998 303.46000000000004 Q 168 300.18 165.54 296.62 Z" stroke-linecap="round" />
</g>
		<g transform="matrix(1 0 0 1 -4.56 -32.68)"  >
<path style="stroke: none; stroke-width: 1; stroke-dasharray: none; stroke-linecap: butt; stroke-dashoffset: 0; stroke-linejoin: miter; stroke-miterlimit: 4; fill: rgb(35,24,21); fill-rule: nonzero; opacity: 1;" vector-effect="non-scaling-stroke"  transform=" translate(-245.55, -217.45)" d="M 171.24 276.48 C 167.31641354484637 280.3416800937274 163.87776297648662 284.6668577617424 161 289.36000000000007 C 141.73 254.86 146 211.19 171 180.60000000000002 C 196.37 149.55 240.57999999999998 137.36 278.27 151.18 C 314.7548705871264 164.66100836908703 339.8139002759631 198.4432173561204 342.13 237.27000000000004 C 337.1352646850244 234.28895427749694 331.82208701261027 231.87722779614228 326.28999999999996 230.08 C 320.9376332140131 196.08938552461808 295.08592171874943 168.97097999923204 261.39 162 C 228.10999999999999 155.26 193.17 170.91 175.63 199.86 C 161.7478480536951 223.15236339376514 160.1090677051458 251.75449330398112 171.24 276.48 Z" stroke-linecap="round" />
</g>
		<g transform="matrix(1 0 0 1 -82.16 36.41)"  >
<path style="stroke: none; stroke-width: 1; stroke-dasharray: none; stroke-linecap: butt; stroke-dashoffset: 0; stroke-linejoin: miter; stroke-miterlimit: 4; fill: rgb(35,24,21); fill-rule: nonzero; opacity: 1;" vector-effect="non-scaling-stroke"  transform=" translate(-167.94, -286.55)" d="M 171.24 276.48 C 172.33 278.86 173.53 281.21000000000004 174.86 283.48 C 171.19580968937547 287.4329414856759 168.06272864461548 291.84682068285383 165.54000000000002 296.61 C 164.54000000000002 295.17 163.59000000000003 293.71000000000004 162.68 292.2 Q 161.83 290.78999999999996 161.03 289.34999999999997 C 163.89909431931238 284.66201736415496 167.32758890740877 280.34030087553595 171.24 276.48 Z" stroke-linecap="round" />
</g>
		<g transform="matrix(1 0 0 1 -57.08 92.16)"  >
<path style="stroke: none; stroke-width: 1; stroke-dasharray: none; stroke-linecap: butt; stroke-dashoffset: 0; stroke-linejoin: miter; stroke-miterlimit: 4; fill: rgb(35,24,21); fill-rule: nonzero; opacity: 1;" vector-effect="non-scaling-stroke"  transform=" translate(-193.03, -342.29)" d="M 165.54 296.62 Q 167.97 300.18 170.67999999999998 303.46 C 165.4859062957055 314.9516679922979 164.426000273774 327.8860544799347 167.67999999999998 340.07 C 174.15999999999997 363.87 196.01999999999998 380.19 220.51999999999998 380.46999999999997 C 225.32 380.52 227.73 384.23999999999995 227.76 387.96999999999997 L 220.51999999999998 387.96999999999997 C 198.69591470823804 387.9654567572976 178.46856791066404 376.53054763061186 167.21158759167838 357.8337266826239 C 155.95460727269267 339.1369057346359 155.31275118826704 315.9099660745822 165.51999999999998 296.62 Z" stroke-linecap="round" />
</g>
		<g transform="matrix(1 0 0 1 -127.24 -78.74)"  >
<path style="stroke: none; stroke-width: 1; stroke-dasharray: none; stroke-linecap: butt; stroke-dashoffset: 0; stroke-linejoin: miter; stroke-miterlimit: 4; fill: rgb(35,24,21); fill-rule: nonzero; opacity: 1;" vector-effect="non-scaling-stroke"  transform=" translate(-122.86, -171.39)" d="M 141.22 173.34 C 149.59 178.17000000000002 142.02 191.13 133.65 186.29 L 104.5 169.47 C 96.14 164.64 103.7 151.68 112.07 156.47 Z" stroke-linecap="round" />
</g>
		<g transform="matrix(1 0 0 1 -127.24 62.97)"  >
<path style="stroke: none; stroke-width: 1; stroke-dasharray: none; stroke-linecap: butt; stroke-dashoffset: 0; stroke-linejoin: miter; stroke-miterlimit: 4; fill: rgb(35,24,21); fill-rule: nonzero; opacity: 1;" vector-effect="non-scaling-stroke"  transform=" translate(-122.86, -313.1)" d="M 133.65 298.2 C 142.03 293.36 149.58 306.32 141.22 311.15 L 112.07 328 C 103.69 332.84 96.14999999999999 319.87 104.5 315 Z" stroke-linecap="round" />
</g>
		<g transform="matrix(1 0 0 1 -146.23 -7.88)"  >
<path style="stroke: none; stroke-width: 1; stroke-dasharray: none; stroke-linecap: butt; stroke-dashoffset: 0; stroke-linejoin: miter; stroke-miterlimit: 4; fill: rgb(35,24,21); fill-rule: nonzero; opacity: 1;" vector-effect="non-scaling-stroke"  transform=" translate(-103.88, -242.25)" d="M 120.71 234.75 C 130.37 234.75 130.35999999999999 249.75 120.71 249.75 L 87.05 249.75 C 77.38 249.75 77.39999999999999 234.75 87.05 234.75 Z" stroke-linecap="round" />
</g>
		<g transform="matrix(1 0 0 1 -18.66 109.55)"  >
<path style="stroke: none; stroke-width: 1; stroke-dasharray: none; stroke-linecap: butt; stroke-dashoffset: 0; stroke-linejoin: miter; stroke-miterlimit: 4; fill: rgb(35,24,21); fill-rule: nonzero; opacity: 1;" vector-effect="non-scaling-stroke"  transform=" translate(-231.45, -359.68)" d="M 231.45 367.18 C 241.1 367.18 241.11999999999998 352.18 231.45 352.18 C 221.78 352.18 221.78 367.18 231.45 367.18 Z" stroke-linecap="round" />
</g>
		<g transform="matrix(1 0 0 1 9.19 109.55)"  >
<path style="stroke: none; stroke-width: 1; stroke-dasharray: none; stroke-linecap: butt; stroke-dashoffset: 0; stroke-linejoin: miter; stroke-miterlimit: 4; fill: rgb(35,24,21); fill-rule: nonzero; opacity: 1;" vector-effect="non-scaling-stroke"  transform=" translate(-259.3, -359.68)" d="M 259.3 367.18 C 268.95 367.18 268.97 352.18 259.3 352.18 C 249.63 352.18 249.63000000000002 367.18 259.3 367.18 Z" stroke-linecap="round" />
</g>
		<g transform="matrix(1 0 0 1 37.04 109.55)"  >
<path style="stroke: none; stroke-width: 1; stroke-dasharray: none; stroke-linecap: butt; stroke-dashoffset: 0; stroke-linejoin: miter; stroke-miterlimit: 4; fill: rgb(35,24,21); fill-rule: nonzero; opacity: 1;" vector-effect="non-scaling-stroke"  transform=" translate(-287.15, -359.68)" d="M 287.15 367.18 C 296.79999999999995 367.18 296.82 352.18 287.15 352.18 C 277.47999999999996 352.18 277.47999999999996 367.18 287.15 367.18 Z" stroke-linecap="round" />
</g>
		<g transform="matrix(1 0 0 1 64.89 109.55)"  >
<path style="stroke: none; stroke-width: 1; stroke-dasharray: none; stroke-linecap: butt; stroke-dashoffset: 0; stroke-linejoin: miter; stroke-miterlimit: 4; fill: rgb(35,24,21); fill-rule: nonzero; opacity: 1;" vector-effect="non-scaling-stroke"  transform=" translate(-315, -359.68)" d="M 315 367.18 C 324.65 367.18 324.67 352.18 315 352.18 C 305.33 352.18 305.33 367.18 315 367.18 Z" stroke-linecap="round" />
</g>
		<g transform="matrix(1 0 0 1 92.73 109.55)"  >
<path style="stroke: none; stroke-width: 1; stroke-dasharray: none; stroke-linecap: butt; stroke-dashoffset: 0; stroke-linejoin: miter; stroke-miterlimit: 4; fill: rgb(35,24,21); fill-rule: nonzero; opacity: 1;" vector-effect="non-scaling-stroke"  transform=" translate(-342.84, -359.68)" d="M 342.84 367.18 C 352.48999999999995 367.18 352.51 352.18 342.84 352.18 C 333.16999999999996 352.18 333.16999999999996 367.18 342.84 367.18 Z" stroke-linecap="round" />
</g>
		<g transform="matrix(1 0 0 1 14.34 166.13)"  >
<path style="stroke: none; stroke-width: 1; stroke-dasharray: none; stroke-linecap: butt; stroke-dashoffset: 0; stroke-linejoin: miter; stroke-miterlimit: 4; fill: rgb(35,24,21); fill-rule: nonzero; opacity: 1;" vector-effect="non-scaling-stroke"  transform=" translate(-264.45, -416.26)" d="M 264.45 423.76 C 274.09999999999997 423.76 274.12 408.76 264.45 408.76 C 254.77999999999997 408.76 254.78 423.76 264.45 423.76 Z" stroke-linecap="round" />
</g>
		<g transform="matrix(1 0 0 1 42.19 166.13)"  >
<path style="stroke: none; stroke-width: 1; stroke-dasharray: none; stroke-linecap: butt; stroke-dashoffset: 0; stroke-linejoin: miter; stroke-miterlimit: 4; fill: rgb(35,24,21); fill-rule: nonzero; opacity: 1;" vector-effect="non-scaling-stroke"  transform=" translate(-292.3, -416.26)" d="M 292.3 423.76 C 301.95 423.76 301.97 408.76 292.3 408.76 C 282.63 408.76 282.63 423.76 292.3 423.76 Z" stroke-linecap="round" />
</g>
		<g transform="matrix(1 0 0 1 70.04 166.13)"  >
<path style="stroke: none; stroke-width: 1; stroke-dasharray: none; stroke-linecap: butt; stroke-dashoffset: 0; stroke-linejoin: miter; stroke-miterlimit: 4; fill: rgb(35,24,21); fill-rule: nonzero; opacity: 1;" vector-effect="non-scaling-stroke"  transform=" translate(-320.15, -416.26)" d="M 320.15 423.76 C 329.79999999999995 423.76 329.82 408.76 320.15 408.76 C 310.47999999999996 408.76 310.47999999999996 423.76 320.15 423.76 Z" stroke-linecap="round" />
</g>
		<g transform="matrix(1 0 0 1 97.89 166.13)"  >
<path style="stroke: none; stroke-width: 1; stroke-dasharray: none; stroke-linecap: butt; stroke-dashoffset: 0; stroke-linejoin: miter; stroke-miterlimit: 4; fill: rgb(35,24,21); fill-rule: nonzero; opacity: 1;" vector-effect="non-scaling-stroke"  transform=" translate(-348, -416.26)" d="M 348 423.76 C 357.65 423.76 357.67 408.76 348 408.76 C 338.33 408.76 338.33 423.76 348 423.76 Z" stroke-linecap="round" />
</g>
		<g transform="matrix(1 0 0 1 125.73 166.13)"  >
<path style="stroke: none; stroke-width: 1; stroke-dasharray: none; stroke-linecap: butt; stroke-dashoffset: 0; stroke-linejoin: miter; stroke-miterlimit: 4; fill: rgb(35,24,21); fill-rule: nonzero; opacity: 1;" vector-effect="non-scaling-stroke"  transform=" translate(-375.84, -416.26)" d="M 375.84 423.76 C 385.48999999999995 423.76 385.51 408.76 375.84 408.76 C 366.16999999999996 408.76 366.16999999999996 423.76 375.84 423.76 Z" stroke-linecap="round" />
</g>
		<g transform="matrix(1 0 0 1 -3.4 137.84)"  >
<path style="stroke: none; stroke-width: 1; stroke-dasharray: none; stroke-linecap: butt; stroke-dashoffset: 0; stroke-linejoin: miter; stroke-miterlimit: 4; fill: rgb(35,24,21); fill-rule: nonzero; opacity: 1;" vector-effect="non-scaling-stroke"  transform=" translate(-246.71, -387.97)" d="M 246.71 395.47 C 256.36 395.47 256.38 380.47 246.71 380.47 C 237.04000000000002 380.47 237.04000000000002 395.47 246.71 395.47 Z" stroke-linecap="round" />
</g>
		<g transform="matrix(1 0 0 1 26.35 137.84)"  >
<path style="stroke: none; stroke-width: 1; stroke-dasharray: none; stroke-linecap: butt; stroke-dashoffset: 0; stroke-linejoin: miter; stroke-miterlimit: 4; fill: rgb(35,24,21); fill-rule: nonzero; opacity: 1;" vector-effect="non-scaling-stroke"  transform=" translate(-276.46, -387.97)" d="M 276.46 395.47 C 286.10999999999996 395.47 286.13 380.47 276.46 380.47 C 266.78999999999996 380.47 266.78999999999996 395.47 276.46 395.47 Z" stroke-linecap="round" />
</g>
		<g transform="matrix(1 0 0 1 56.11 137.84)"  >
<path style="stroke: none; stroke-width: 1; stroke-dasharray: none; stroke-linecap: butt; stroke-dashoffset: 0; stroke-linejoin: miter; stroke-miterlimit: 4; fill: rgb(35,24,21); fill-rule: nonzero; opacity: 1;" vector-effect="non-scaling-stroke"  transform=" translate(-306.22, -387.97)" d="M 306.22 395.47 C 315.87 395.47 315.89000000000004 380.47 306.22 380.47 C 296.55 380.47 296.55 395.47 306.22 395.47 Z" stroke-linecap="round" />
</g>
		<g transform="matrix(1 0 0 1 85.89 137.84)"  >
<path style="stroke: none; stroke-width: 1; stroke-dasharray: none; stroke-linecap: butt; stroke-dashoffset: 0; stroke-linejoin: miter; stroke-miterlimit: 4; fill: rgb(35,24,21); fill-rule: nonzero; opacity: 1;" vector-effect="non-scaling-stroke"  transform=" translate(-336, -387.97)" d="M 336 395.47 C 345.65 395.47 345.67 380.47 336 380.47 C 326.33 380.47 326.33 395.47 336 395.47 Z" stroke-linecap="round" />
</g>
</g>
</g>
</svg>